<?xml version="1.0" encoding="iso-8859-1"?>
<!-- Generator: Adobe Illustrator 18.0.0, SVG Export Plug-In . SVG Version: 6.00 Build 0)  -->
<!DOCTYPE svg PUBLIC "-//W3C//DTD SVG 1.1//EN" "http://www.w3.org/Graphics/SVG/1.1/DTD/svg11.dtd">
<svg version="1.1" id="Capa_1" xmlns="http://www.w3.org/2000/svg" xmlns:xlink="http://www.w3.org/1999/xlink" x="0px" y="0px" width="16px" height="16px"
	 viewBox="0 0 330.004 330.004" fill="white" xml:space="preserve">
<g>
<path d="M315.002,0h-300c-8.284,0-15,6.716-15,15v300.004c0,8.284,6.716,15,15,15h170c8.284,0,15-6.716,15-15
	c0-8.284-6.716-15-15-15h-155v-130h70V225c0,8.284,6.716,15,15,15s15-6.716,15-15V85c0-8.284-6.716-15-15-15s-15,6.716-15,15v55.004
	h-70V30h150v75.004c0,8.284,6.716,15,15,15h70c8.284,0,15-6.716,15-15c0-8.284-6.716-15-15-15h-55V30h90v180.004h-105
	c-8.284,0-15,6.716-15,15c0,8.284,6.716,15,15,15h105v60h-25c-8.284,0-15,6.716-15,15c0,8.284,6.716,15,15,15h40
	c8.284,0,15-6.716,15-15V15C330.002,6.716,323.286,0,315.002,0z"/>
</g>
</svg>
