<?xml version="1.0" encoding="UTF-8"?>
<!DOCTYPE svg PUBLIC "-//W3C//DTD SVG 1.1//EN" "http://www.w3.org/Graphics/SVG/1.1/DTD/svg11.dtd">
<!-- Creator: CorelDRAW 2020 (64-Bit) -->
<svg xmlns="http://www.w3.org/2000/svg" xml:space="preserve" width="200px" height="78px" version="1.1" style="shape-rendering:geometricPrecision; text-rendering:geometricPrecision; image-rendering:optimizeQuality; fill-rule:evenodd; clip-rule:evenodd"
viewBox="0 0 200 77.76"
 xmlns:xlink="http://www.w3.org/1999/xlink"
 xmlns:xodm="http://www.corel.com/coreldraw/odm/2003">
 <defs>
  <style type="text/css">
   <![CDATA[
    .fil0 {fill:white}
   ]]>
  </style>
 </defs>
 <g id="Capa_x0020_1">
  <metadata id="CorelCorpID_0Corel-Layer"/>
  <path class="fil0" d="M23.57 35.22l6.38 0 0 6.25 0 3.13 0 10.21 0 5.83 26.67 0 0 -9.84c0,-3.41 -2.79,-6.2 -6.19,-6.2l-3.52 0 0 -3.13 19.3 0 0 23.76 -61.26 0 0 -29.92 -4.95 0 58.59 -35.31 7.68 5.29 0 4.11 -42.7 25.82zm89.95 32.67l1.91 0c0.77,0 1.36,0.09 1.78,0.27 0.41,0.18 0.74,0.46 0.97,0.84 0.25,0.38 0.36,0.8 0.36,1.26 0,0.43 -0.1,0.82 -0.31,1.18 -0.21,0.35 -0.52,0.63 -0.92,0.86 0.5,0.17 0.89,0.37 1.16,0.6 0.27,0.23 0.48,0.51 0.63,0.84 0.15,0.32 0.23,0.68 0.23,1.06 0,0.78 -0.29,1.44 -0.86,1.98 -0.56,0.54 -1.33,0.81 -2.29,0.81l-2.66 0 0 -9.7zm0.95 0.94l0 3.11 0.55 0c0.68,0 1.17,-0.06 1.49,-0.19 0.32,-0.12 0.57,-0.32 0.76,-0.59 0.18,-0.27 0.28,-0.57 0.28,-0.9 0,-0.45 -0.16,-0.79 -0.47,-1.05 -0.31,-0.25 -0.81,-0.38 -1.49,-0.38l-1.12 0zm0 4.08l0 3.73 1.2 0c0.71,0 1.23,-0.07 1.56,-0.21 0.33,-0.14 0.6,-0.36 0.8,-0.65 0.2,-0.3 0.3,-0.61 0.3,-0.96 0,-0.43 -0.14,-0.81 -0.42,-1.13 -0.29,-0.32 -0.67,-0.54 -1.17,-0.66 -0.33,-0.08 -0.9,-0.12 -1.73,-0.12l-0.54 0zm6.95 -5.44c0.21,0 0.39,0.07 0.54,0.22 0.15,0.15 0.22,0.33 0.22,0.54 0,0.21 -0.07,0.39 -0.22,0.54 -0.15,0.15 -0.33,0.22 -0.54,0.22 -0.21,0 -0.38,-0.07 -0.53,-0.22 -0.15,-0.15 -0.22,-0.33 -0.22,-0.54 0,-0.21 0.07,-0.39 0.22,-0.54 0.15,-0.15 0.32,-0.22 0.53,-0.22zm-0.46 2.94l0.92 0 0 7.18 -0.92 0 0 -7.18zm8.9 4.8l0.78 0.41c-0.26,0.5 -0.55,0.9 -0.89,1.2 -0.33,0.31 -0.71,0.54 -1.13,0.7 -0.42,0.16 -0.89,0.24 -1.42,0.24 -1.18,0 -2.09,-0.38 -2.75,-1.15 -0.67,-0.76 -1,-1.63 -1,-2.59 0,-0.91 0.28,-1.72 0.84,-2.43 0.71,-0.9 1.67,-1.35 2.86,-1.35 1.22,0 2.2,0.46 2.94,1.39 0.52,0.65 0.78,1.46 0.79,2.44l-6.48 0c0.02,0.83 0.28,1.51 0.8,2.04 0.52,0.53 1.16,0.8 1.91,0.8 0.37,0 0.73,-0.06 1.08,-0.19 0.34,-0.13 0.64,-0.29 0.88,-0.5 0.24,-0.21 0.51,-0.55 0.79,-1.01zm0.01 -1.93c-0.13,-0.5 -0.31,-0.89 -0.54,-1.18 -0.24,-0.3 -0.55,-0.53 -0.94,-0.71 -0.39,-0.18 -0.8,-0.27 -1.23,-0.27 -0.71,0 -1.32,0.22 -1.83,0.67 -0.37,0.33 -0.65,0.83 -0.84,1.49l5.38 0zm2.71 -2.87l0.92 0 0 1.29c0.37,-0.49 0.78,-0.86 1.23,-1.1 0.45,-0.24 0.94,-0.36 1.47,-0.36 0.53,0 1.01,0.13 1.43,0.41 0.41,0.27 0.72,0.63 0.92,1.1 0.2,0.46 0.3,1.17 0.3,2.15l0 3.69 -0.92 0 0 -3.42c0,-0.83 -0.04,-1.38 -0.11,-1.65 -0.11,-0.48 -0.32,-0.83 -0.62,-1.07 -0.3,-0.24 -0.7,-0.36 -1.19,-0.36 -0.56,0 -1.06,0.18 -1.5,0.55 -0.45,0.37 -0.74,0.83 -0.88,1.37 -0.09,0.36 -0.13,1.01 -0.13,1.95l0 2.63 -0.92 0 0 -7.18zm14.29 4.8l0.78 0.41c-0.25,0.5 -0.55,0.9 -0.89,1.2 -0.33,0.31 -0.71,0.54 -1.13,0.7 -0.42,0.16 -0.89,0.24 -1.42,0.24 -1.17,0 -2.09,-0.38 -2.75,-1.15 -0.66,-0.76 -0.99,-1.63 -0.99,-2.59 0,-0.91 0.28,-1.72 0.84,-2.43 0.71,-0.9 1.66,-1.35 2.85,-1.35 1.23,0 2.21,0.46 2.94,1.39 0.52,0.65 0.79,1.46 0.79,2.44l-6.48 0c0.02,0.83 0.29,1.51 0.8,2.04 0.52,0.53 1.16,0.8 1.92,0.8 0.37,0 0.72,-0.06 1.07,-0.19 0.35,-0.13 0.64,-0.29 0.89,-0.5 0.24,-0.21 0.5,-0.55 0.78,-1.01zm0.01 -1.93c-0.12,-0.5 -0.3,-0.89 -0.54,-1.18 -0.24,-0.3 -0.55,-0.53 -0.94,-0.71 -0.39,-0.18 -0.8,-0.27 -1.23,-0.27 -0.71,0 -1.31,0.22 -1.82,0.67 -0.38,0.33 -0.65,0.83 -0.85,1.49l5.38 0zm6.33 -2.09l-0.59 0.61c-0.49,-0.47 -0.98,-0.71 -1.45,-0.71 -0.3,0 -0.55,0.1 -0.77,0.3 -0.21,0.19 -0.32,0.42 -0.32,0.69 0,0.23 0.09,0.45 0.26,0.66 0.18,0.22 0.55,0.47 1.11,0.76 0.69,0.35 1.15,0.7 1.4,1.03 0.24,0.33 0.36,0.71 0.36,1.12 0,0.59 -0.2,1.09 -0.62,1.5 -0.41,0.41 -0.93,0.61 -1.55,0.61 -0.41,0 -0.81,-0.09 -1.19,-0.27 -0.37,-0.18 -0.68,-0.43 -0.93,-0.74l0.58 -0.66c0.47,0.53 0.97,0.79 1.5,0.79 0.37,0 0.69,-0.12 0.95,-0.35 0.26,-0.24 0.39,-0.52 0.39,-0.84 0,-0.26 -0.09,-0.5 -0.26,-0.7 -0.17,-0.21 -0.56,-0.46 -1.16,-0.77 -0.65,-0.33 -1.09,-0.66 -1.33,-0.98 -0.23,-0.33 -0.35,-0.7 -0.35,-1.11 0,-0.54 0.19,-0.99 0.56,-1.35 0.38,-0.36 0.85,-0.54 1.42,-0.54 0.66,0 1.32,0.32 1.99,0.95zm5.57 -3.3l1.93 0c1.08,0 1.81,0.04 2.2,0.13 0.58,0.13 1.04,0.41 1.4,0.85 0.37,0.43 0.55,0.96 0.55,1.59 0,0.53 -0.13,1 -0.38,1.39 -0.24,0.4 -0.6,0.71 -1.06,0.91 -0.47,0.21 -1.1,0.31 -1.92,0.31l3.49 4.52 -1.19 0 -3.49 -4.52 -0.56 0 0 4.52 -0.97 0 0 -9.7zm0.97 0.94l0 3.3 1.68 0.01c0.65,0 1.13,-0.06 1.44,-0.18 0.31,-0.13 0.55,-0.32 0.73,-0.59 0.17,-0.27 0.26,-0.57 0.26,-0.91 0,-0.32 -0.09,-0.62 -0.27,-0.89 -0.17,-0.26 -0.41,-0.45 -0.69,-0.57 -0.29,-0.11 -0.77,-0.17 -1.43,-0.17l-1.72 0zm14.17 1.58l0 7.18 -0.92 0 0 -1.24c-0.39,0.47 -0.82,0.83 -1.3,1.06 -0.48,0.23 -1.01,0.35 -1.58,0.35 -1.01,0 -1.88,-0.37 -2.59,-1.1 -0.72,-0.74 -1.08,-1.63 -1.08,-2.68 0,-1.03 0.36,-1.91 1.09,-2.64 0.72,-0.74 1.59,-1.1 2.61,-1.1 0.59,0 1.12,0.12 1.6,0.37 0.47,0.25 0.89,0.62 1.25,1.12l0 -1.32 0.92 0zm-3.7 0.72c-0.51,0 -0.98,0.13 -1.42,0.38 -0.43,0.25 -0.78,0.6 -1.03,1.06 -0.26,0.45 -0.39,0.93 -0.39,1.44 0,0.5 0.13,0.98 0.39,1.44 0.26,0.46 0.61,0.82 1.04,1.07 0.44,0.26 0.91,0.39 1.41,0.39 0.5,0 0.98,-0.13 1.43,-0.38 0.45,-0.25 0.8,-0.6 1.04,-1.03 0.24,-0.43 0.37,-0.92 0.37,-1.46 0,-0.83 -0.28,-1.52 -0.82,-2.08 -0.55,-0.55 -1.22,-0.83 -2.02,-0.83zm5.65 -0.72l0.92 0 0 7.18 -0.92 0 0 -7.18zm0.92 -3.36l1.41 0 -1.94 2.03 -0.91 0 1.44 -2.03zm8.89 4.85l-0.74 0.46c-0.63,-0.84 -1.5,-1.26 -2.6,-1.26 -0.87,0 -1.6,0.28 -2.18,0.84 -0.58,0.56 -0.87,1.24 -0.87,2.05 0,0.52 0.13,1.01 0.4,1.47 0.26,0.46 0.63,0.82 1.1,1.07 0.46,0.25 0.98,0.38 1.56,0.38 1.06,0 1.92,-0.42 2.59,-1.26l0.74 0.49c-0.35,0.51 -0.81,0.91 -1.39,1.2 -0.58,0.28 -1.24,0.42 -1.98,0.42 -1.14,0 -2.08,-0.36 -2.83,-1.08 -0.75,-0.72 -1.13,-1.59 -1.13,-2.62 0,-0.69 0.18,-1.34 0.53,-1.93 0.35,-0.6 0.83,-1.06 1.44,-1.39 0.62,-0.34 1.3,-0.5 2.06,-0.5 0.48,0 0.94,0.07 1.38,0.21 0.44,0.15 0.82,0.34 1.13,0.57 0.31,0.23 0.57,0.53 0.79,0.88zm7.82 3.31l0.78 0.41c-0.26,0.5 -0.55,0.9 -0.89,1.2 -0.33,0.31 -0.71,0.54 -1.13,0.7 -0.42,0.16 -0.89,0.24 -1.42,0.24 -1.18,0 -2.09,-0.38 -2.75,-1.15 -0.67,-0.76 -1,-1.63 -1,-2.59 0,-0.91 0.29,-1.72 0.85,-2.43 0.7,-0.9 1.66,-1.35 2.85,-1.35 1.22,0 2.21,0.46 2.94,1.39 0.52,0.65 0.78,1.46 0.79,2.44l-6.48 0c0.02,0.83 0.29,1.51 0.8,2.04 0.52,0.53 1.16,0.8 1.92,0.8 0.36,0 0.72,-0.06 1.07,-0.19 0.34,-0.13 0.64,-0.29 0.88,-0.5 0.25,-0.21 0.51,-0.55 0.79,-1.01zm0.01 -1.93c-0.12,-0.5 -0.3,-0.89 -0.54,-1.18 -0.24,-0.3 -0.55,-0.53 -0.94,-0.71 -0.39,-0.18 -0.8,-0.27 -1.23,-0.27 -0.71,0 -1.32,0.22 -1.82,0.67 -0.38,0.33 -0.66,0.83 -0.85,1.49l5.38 0zm6.33 -2.09l-0.59 0.61c-0.5,-0.47 -0.98,-0.71 -1.45,-0.71 -0.3,0 -0.56,0.1 -0.77,0.3 -0.21,0.19 -0.32,0.42 -0.32,0.69 0,0.23 0.09,0.45 0.26,0.66 0.18,0.22 0.55,0.47 1.11,0.76 0.69,0.35 1.15,0.7 1.4,1.03 0.24,0.33 0.36,0.71 0.36,1.12 0,0.59 -0.21,1.09 -0.62,1.5 -0.41,0.41 -0.93,0.61 -1.55,0.61 -0.42,0 -0.81,-0.09 -1.19,-0.27 -0.38,-0.18 -0.69,-0.43 -0.93,-0.74l0.58 -0.66c0.47,0.53 0.97,0.79 1.5,0.79 0.37,0 0.68,-0.12 0.94,-0.35 0.26,-0.24 0.39,-0.52 0.39,-0.84 0,-0.26 -0.08,-0.5 -0.25,-0.7 -0.18,-0.21 -0.56,-0.46 -1.17,-0.77 -0.64,-0.33 -1.09,-0.66 -1.32,-0.98 -0.23,-0.33 -0.35,-0.7 -0.35,-1.11 0,-0.54 0.19,-0.99 0.56,-1.35 0.37,-0.36 0.84,-0.54 1.41,-0.54 0.66,0 1.33,0.32 2,0.95zm-108.08 -6.53l-2.75 0 0.08 -3.49c-0.95,1.35 -2.12,2.37 -3.53,3.04 -1.4,0.68 -2.95,1.02 -4.66,1.02 -1.37,0 -2.59,-0.19 -3.64,-0.57 -1.06,-0.38 -1.87,-0.74 -2.43,-1.1 -0.57,-0.35 -1.27,-0.88 -2.09,-1.6 -0.83,-0.71 -1.57,-1.8 -2.23,-3.26 -0.66,-1.46 -0.99,-3.06 -0.99,-4.82 0,-1.65 0.33,-3.22 1.01,-4.72 0.68,-1.5 1.55,-2.75 2.63,-3.75 1.08,-1 2.29,-1.75 3.61,-2.27 1.32,-0.51 2.73,-0.77 4.21,-0.77 1.08,0 2.1,0.15 3.06,0.45 0.96,0.3 1.87,0.74 2.74,1.33 0.86,0.6 1.63,1.34 2.31,2.23l0 -3.48 2.67 0 0 21.76zm-2.67 -10.98c0,-1.48 -0.39,-2.91 -1.18,-4.28 -0.78,-1.37 -1.79,-2.44 -3.04,-3.21 -1.24,-0.76 -2.59,-1.14 -4.05,-1.14l-0.77 0c-1.11,0.1 -2.13,0.43 -3.08,0.97 -0.89,0.45 -1.69,1.11 -2.41,1.98 -0.71,0.86 -1.24,1.79 -1.58,2.79 -0.34,1 -0.51,2.04 -0.51,3.15l0 0.73c0,0.67 0.11,1.32 0.31,1.96 0.2,0.63 0.6,1.42 1.19,2.34 0.6,0.93 1.52,1.76 2.76,2.49 1.24,0.73 2.59,1.09 4.05,1.09 1.51,0 2.91,-0.42 4.2,-1.25 1.28,-0.84 2.28,-1.94 3.01,-3.33 0.73,-1.38 1.1,-2.81 1.1,-4.29zm11.05 -17.83l0 28.81 -2.76 0 0 -28.81 2.76 0zm8.46 0l0 28.81 -2.76 0 0 -28.81 2.76 0zm26.73 28.81l-2.76 0 0.08 -3.49c-0.94,1.35 -2.12,2.37 -3.52,3.04 -1.41,0.68 -2.96,1.02 -4.66,1.02 -1.38,0 -2.6,-0.19 -3.65,-0.57 -1.05,-0.38 -1.86,-0.74 -2.43,-1.1 -0.57,-0.35 -1.26,-0.88 -2.09,-1.6 -0.82,-0.71 -1.56,-1.8 -2.23,-3.26 -0.66,-1.46 -0.99,-3.06 -0.99,-4.82 0,-1.65 0.34,-3.22 1.01,-4.72 0.68,-1.5 1.56,-2.75 2.64,-3.75 1.08,-1 2.28,-1.75 3.6,-2.27 1.33,-0.51 2.73,-0.77 4.22,-0.77 1.08,0 2.1,0.15 3.06,0.45 0.96,0.3 1.87,0.74 2.73,1.33 0.87,0.6 1.64,1.34 2.31,2.23l0 -3.48 2.68 0 0 21.76zm-2.68 -10.98c0,-1.48 -0.39,-2.91 -1.17,-4.28 -0.79,-1.37 -1.8,-2.44 -3.04,-3.21 -1.24,-0.76 -2.6,-1.14 -4.05,-1.14l-0.77 0c-1.11,0.1 -2.14,0.43 -3.08,0.97 -0.9,0.45 -1.7,1.11 -2.41,1.98 -0.72,0.86 -1.25,1.79 -1.58,2.79 -0.34,1 -0.51,2.04 -0.51,3.15l0 0.73c0,0.67 0.1,1.32 0.3,1.96 0.21,0.63 0.6,1.42 1.2,2.34 0.59,0.93 1.51,1.76 2.75,2.49 1.25,0.73 2.6,1.09 4.06,1.09 1.51,0 2.91,-0.42 4.19,-1.25 1.28,-0.84 2.29,-1.94 3.02,-3.33 0.73,-1.38 1.09,-2.81 1.09,-4.29zm10.97 -2.18l0 13.16 -2.75 0 0 -21.76 2.59 0 0 2.51c0.7,-0.96 1.47,-1.68 2.31,-2.16 0.84,-0.48 1.75,-0.72 2.75,-0.72l0 3c-1.32,0 -2.54,0.5 -3.64,1.5 -0.52,0.6 -0.85,1.25 -1.02,1.95 -0.16,0.71 -0.24,1.55 -0.24,2.52zm26.89 -5.12c0,-0.46 0,-1.29 0,-2.51 0,-1.21 0,-2.01 0,-2.39l0 -5.63 2.68 0 0 28.81 -2.68 0 0 -3.24c-1.08,1.28 -2.33,2.23 -3.74,2.86 -1.42,0.63 -2.89,0.95 -4.4,0.95 -1.92,0 -3.74,-0.48 -5.47,-1.42 -1.73,-0.94 -3.15,-2.28 -4.28,-4.01 -1.12,-1.72 -1.68,-3.65 -1.68,-5.78 0,-1.19 0.13,-2.27 0.39,-3.27 0.25,-1 0.8,-2.18 1.64,-3.52 0.84,-1.35 2.09,-2.5 3.77,-3.44 1.67,-0.95 3.52,-1.42 5.55,-1.42 1.05,0 2.07,0.16 3.06,0.47 0.98,0.31 1.9,0.75 2.75,1.31 0.85,0.57 1.66,1.32 2.41,2.23zm0 7.56c0,-1.4 -0.31,-2.74 -0.93,-4.02 -0.62,-1.28 -1.5,-2.36 -2.65,-3.24 -1.15,-0.87 -2.44,-1.42 -3.87,-1.63l-0.97 0c-1.54,0 -2.94,0.41 -4.18,1.23 -1.24,0.82 -2.22,1.91 -2.94,3.26 -0.71,1.36 -1.07,2.81 -1.07,4.34 0,1.07 0.21,2.14 0.63,3.19 0.42,1.04 1.03,2 1.84,2.86 0.73,0.83 1.62,1.48 2.68,1.93 1.05,0.46 2.13,0.69 3.24,0.69 1.48,0 2.86,-0.41 4.11,-1.23 1.26,-0.82 2.26,-1.9 3,-3.23 0.74,-1.34 1.11,-2.72 1.11,-4.15zm7 -0.16c0,-1.6 0.29,-3.05 0.85,-4.39 0.57,-1.34 1.41,-2.57 2.51,-3.72 1.11,-1.15 2.36,-2.01 3.75,-2.59 1.39,-0.58 2.81,-0.87 4.24,-0.87l0.85 0c2,0.22 3.58,0.73 4.74,1.54 1.16,0.82 2.05,1.57 2.67,2.28 0.62,0.7 1.26,1.66 1.91,2.9 0.65,1.23 0.97,2.78 0.97,4.65 0,1.72 -0.33,3.35 -0.99,4.84 -0.66,1.51 -1.63,2.81 -2.9,3.92 -0.92,0.89 -2,1.6 -3.24,2.12 -1.24,0.51 -2.61,0.77 -4.09,0.77l-0.53 0c-1.46,0 -2.67,-0.25 -3.63,-0.73 -0.96,-0.49 -1.74,-0.96 -2.35,-1.4 -0.61,-0.44 -1.13,-0.93 -1.56,-1.47 -0.97,-1.06 -1.75,-2.3 -2.33,-3.73 -0.58,-1.43 -0.87,-2.8 -0.87,-4.12zm2.96 -0.08c0,0.89 0.11,1.75 0.32,2.58 0.22,0.82 0.62,1.73 1.2,2.74 0.58,1 1.53,1.84 2.84,2.52 1.31,0.67 2.64,1.01 3.99,1.01 1.4,0 2.74,-0.33 4.01,-0.99 1.27,-0.67 2.29,-1.67 3.08,-3.01 0.78,-1.34 1.17,-2.95 1.17,-4.85 0,-1.39 -0.23,-2.64 -0.71,-3.78 -0.47,-1.14 -1.08,-2.06 -1.82,-2.78 -0.74,-0.72 -1.64,-1.3 -2.69,-1.73 -0.65,-0.22 -1.21,-0.36 -1.69,-0.42 -0.47,-0.07 -0.93,-0.11 -1.39,-0.11 -1.06,0 -2.06,0.19 -3.02,0.55 -0.96,0.37 -1.86,0.93 -2.7,1.69 -0.83,0.76 -1.48,1.69 -1.92,2.82 -0.45,1.12 -0.67,2.37 -0.67,3.76zm18.8 -19.47l-91.42 0 -14.93 0 -24.38 -23.05 0 -4.27 33.78 23.48 92.96 0 3.99 3.84z"/>
 </g>
</svg>
