<?xml version="1.0" encoding="UTF-8"?>
<!DOCTYPE svg PUBLIC "-//W3C//DTD SVG 1.1//EN" "http://www.w3.org/Graphics/SVG/1.1/DTD/svg11.dtd">
<!-- Creator: CorelDRAW 2020 (64-Bit) -->
<svg xmlns="http://www.w3.org/2000/svg" xml:space="preserve" width="2591px" height="1008px" version="1.1" style="shape-rendering:geometricPrecision; text-rendering:geometricPrecision; image-rendering:optimizeQuality; fill-rule:evenodd; clip-rule:evenodd"
viewBox="0 0 2591 1007.39"
 xmlns:xlink="http://www.w3.org/1999/xlink"
 xmlns:xodm="http://www.corel.com/coreldraw/odm/2003">
 <defs>
  <style type="text/css">
   <![CDATA[
    .fil0 {fill:#0383DC}
    .fil1 {fill:#D8030A}
    .fil2 {fill:black;fill-rule:nonzero}
   ]]>
  </style>
 </defs>
 <g id="Capa_x0020_1">
  <metadata id="CorelCorpID_0Corel-Layer"/>
  <g id="_2904832562560">
   <path class="fil0" d="M305.31 456.28l82.73 0 0 80.98 0 40.5 0 132.27 0 75.58 345.52 0 0 -127.54c0,-44.17 -36.13,-80.31 -80.3,-80.31l-45.56 0 0 -40.5 250.04 0 0 307.74 -793.63 0 0 -387.51 -64.11 0 759.09 -457.49 99.46 68.53 0 53.3 -553.24 334.45z"/>
   <polygon class="fil1" points="2581.55,443.45 1397.18,443.45 1203.83,443.45 887.93,144.87 887.93,89.54 1325.57,393.68 2529.87,393.68 "/>
   <path class="fil2" d="M1188.79 837.65l-35.7 0 1.05 -45.15c-12.25,17.5 -27.47,30.62 -45.67,39.37 -18.2,8.75 -38.32,13.13 -60.37,13.13 -17.85,0 -33.6,-2.46 -47.24,-7.35 -13.65,-4.9 -24.15,-9.63 -31.5,-14.18 -7.35,-4.54 -16.36,-11.46 -27.03,-20.73 -10.68,-9.28 -20.3,-23.36 -28.88,-42.26 -8.57,-18.9 -12.86,-39.72 -12.86,-62.47 0,-21.34 4.38,-41.73 13.12,-61.15 8.76,-19.43 20.13,-35.61 34.13,-48.56 14,-12.95 29.57,-22.75 46.72,-29.4 17.15,-6.65 35.34,-9.97 54.59,-9.97 14,0 27.21,1.93 39.64,5.78 12.42,3.85 24.23,9.62 35.43,17.32 11.2,7.7 21.17,17.32 29.92,28.87l0 -45.15 34.65 0 0 281.9zm-34.65 -142.26c0,-19.16 -5.07,-37.62 -15.22,-55.39 -10.15,-17.75 -23.27,-31.58 -39.37,-41.55 -16.1,-9.89 -33.6,-14.87 -52.5,-14.87l-9.97 0c-14.35,1.4 -27.65,5.6 -39.9,12.6 -11.54,5.85 -21.96,14.43 -31.23,25.63 -9.28,11.2 -16.1,23.18 -20.47,36.13 -4.38,12.95 -6.57,26.51 -6.57,40.86l0 9.45c0,8.66 1.31,17.15 3.94,25.37 2.63,8.23 7.79,18.37 15.49,30.36 7.7,12.07 19.6,22.83 35.69,32.2 16.1,9.44 33.6,14.17 52.5,14.17 19.6,0 37.71,-5.43 54.33,-16.19 16.62,-10.84 29.66,-25.19 39.1,-43.13 9.46,-17.93 14.18,-36.48 14.18,-55.64zm143.15 -230.98l0 373.24 -35.7 0 0 -373.24 35.7 0zm109.56 0l0 373.24 -35.7 0 0 -373.24 35.7 0zm346.3 373.24l-35.7 0 1.06 -45.15c-12.25,17.5 -27.48,30.62 -45.67,39.37 -18.2,8.75 -38.32,13.13 -60.38,13.13 -17.84,0 -33.59,-2.46 -47.24,-7.35 -13.65,-4.9 -24.15,-9.63 -31.49,-14.18 -7.35,-4.54 -16.37,-11.46 -27.04,-20.73 -10.67,-9.28 -20.3,-23.36 -28.87,-42.26 -8.57,-18.9 -12.86,-39.72 -12.86,-62.47 0,-21.34 4.37,-41.73 13.12,-61.15 8.75,-19.43 20.12,-35.61 34.13,-48.56 13.99,-12.95 29.57,-22.75 46.71,-29.4 17.15,-6.65 35.35,-9.97 54.6,-9.97 13.99,0 27.21,1.93 39.63,5.78 12.43,3.85 24.23,9.62 35.44,17.32 11.19,7.7 21.17,17.32 29.92,28.87l0 -45.15 34.64 0 0 281.9zm-34.64 -142.26c0,-19.16 -5.08,-37.62 -15.23,-55.39 -10.15,-17.75 -23.27,-31.58 -39.37,-41.55 -16.1,-9.89 -33.59,-14.87 -52.49,-14.87l-9.98 0c-14.35,1.4 -27.65,5.6 -39.89,12.6 -11.55,5.85 -21.96,14.43 -31.24,25.63 -9.27,11.2 -16.09,23.18 -20.47,36.13 -4.37,12.95 -6.56,26.51 -6.56,40.86l0 9.45c0,8.66 1.31,17.15 3.94,25.37 2.62,8.23 7.78,18.37 15.48,30.36 7.7,12.07 19.6,22.83 35.7,32.2 16.09,9.44 33.6,14.17 52.49,14.17 19.6,0 37.71,-5.43 54.34,-16.19 16.62,-10.84 29.65,-25.19 39.1,-43.13 9.45,-17.93 14.18,-36.48 14.18,-55.64zm142.09 -28.18l0 170.44 -35.69 0 0 -281.9 33.6 0 0 32.55c9.1,-12.42 19.07,-21.79 29.92,-28 10.85,-6.21 22.74,-9.27 35.69,-9.27l0 38.84c-17.15,0 -32.89,6.48 -47.24,19.43 -6.65,7.78 -11.02,16.18 -13.12,25.28 -2.1,9.1 -3.16,20.03 -3.16,32.63zm348.41 -66.31c0,-5.95 0,-16.8 0,-32.55 0,-15.75 0,-26.07 0,-30.97l0 -72.97 34.64 0 0 373.24 -34.64 0 0 -42c-14,16.62 -30.19,28.96 -48.56,37.1 -18.37,8.13 -37.36,12.25 -56.95,12.25 -24.85,0 -48.47,-6.13 -70.87,-18.38 -22.4,-12.16 -40.86,-29.48 -55.38,-51.88 -14.52,-22.31 -21.79,-47.33 -21.79,-74.89 0,-15.4 1.66,-29.49 4.99,-42.43 3.32,-12.95 10.41,-28.18 21.26,-45.58 10.85,-17.5 27.12,-32.38 48.82,-44.54 21.69,-12.25 45.67,-18.37 71.91,-18.37 13.66,0 26.86,2.01 39.64,6.03 12.77,4.03 24.67,9.72 35.69,17.07 11.03,7.35 21.44,16.97 31.24,28.87zm0 97.9c0,-18.2 -4.03,-35.52 -12.08,-52.14 -8.04,-16.54 -19.5,-30.54 -34.38,-41.91 -14.87,-11.29 -31.58,-18.38 -50.13,-21.17l-12.6 0c-19.95,0 -37.97,5.33 -54.07,15.92 -16.1,10.67 -28.78,24.76 -38.06,42.34 -9.27,17.59 -13.91,36.31 -13.91,56.17 0,13.91 2.72,27.74 8.14,41.3 5.42,13.56 13.39,25.9 23.88,37.09 9.45,10.76 21,19.16 34.65,25.02 13.65,5.96 27.65,8.93 41.99,8.93 19.25,0 37.01,-5.34 53.29,-16.01 16.27,-10.59 29.22,-24.59 38.84,-41.82 9.63,-17.33 14.44,-35.26 14.44,-53.72zm90.65 -2.1c0,-20.65 3.68,-39.54 11.03,-56.87 7.35,-17.32 18.2,-33.33 32.54,-48.21 14.35,-14.87 30.54,-25.98 48.56,-33.5 18.03,-7.53 36.31,-11.29 54.86,-11.29l11.02 0c25.9,2.8 46.37,9.45 61.42,19.95 15.04,10.59 26.59,20.38 34.64,29.48 8.05,9.1 16.27,21.61 24.67,37.62 8.4,15.93 12.6,35.96 12.6,60.19 0,22.4 -4.28,43.4 -12.86,62.82 -8.57,19.51 -21.09,36.4 -37.53,50.75 -11.9,11.55 -25.9,20.73 -41.99,27.38 -16.1,6.65 -33.78,9.98 -53.02,9.98l-6.83 0c-18.89,0 -34.55,-3.15 -46.98,-9.45 -12.42,-6.3 -22.57,-12.34 -30.45,-18.03 -7.87,-5.77 -14.61,-12.16 -20.2,-19.16 -12.6,-13.64 -22.66,-29.74 -30.19,-48.2 -7.52,-18.55 -11.29,-36.31 -11.29,-53.46zm38.32 -1.05c0,11.55 1.41,22.75 4.2,33.42 2.81,10.67 7.97,22.49 15.49,35.52 7.52,12.95 19.77,23.8 36.75,32.63 16.97,8.75 34.21,13.13 51.7,13.13 18.2,0 35.52,-4.29 51.97,-12.86 16.45,-8.67 29.74,-21.61 39.89,-38.94 10.15,-17.4 15.22,-38.32 15.22,-62.9 0,-17.94 -3.06,-34.21 -9.18,-48.91 -6.13,-14.78 -14,-26.77 -23.62,-36.04 -9.62,-9.37 -21.26,-16.8 -34.91,-22.4 -8.4,-2.8 -15.66,-4.64 -21.78,-5.51 -6.13,-0.88 -12.16,-1.31 -18.11,-1.31 -13.65,0 -26.69,2.36 -39.11,7.08 -12.42,4.72 -24.06,11.99 -34.91,21.87 -10.85,9.8 -19.16,21.96 -24.93,36.57 -5.78,14.53 -8.67,30.71 -8.67,48.65z"/>
   <path class="fil2" d="M1470.65 879.48l24.76 0c9.98,0 17.65,1.17 22.98,3.53 5.37,2.36 9.6,6.01 12.69,10.91 3.12,4.87 4.66,10.32 4.66,16.27 0,5.6 -1.37,10.67 -4.08,15.25 -2.71,4.58 -6.71,8.28 -11.95,11.14 6.53,2.22 11.55,4.82 15.04,7.82 3.53,2.97 6.25,6.59 8.2,10.85 1.95,4.22 2.95,8.84 2.95,13.79 0,10.09 -3.68,18.64 -11.06,25.61 -7.38,6.97 -17.26,10.47 -29.69,10.47l-34.5 0 0 -125.64zm12.25 12.25l0 40.24 7.21 0c8.75,0 15.19,-0.81 19.3,-2.42 4.11,-1.63 7.38,-4.2 9.77,-7.7 2.42,-3.5 3.62,-7.4 3.62,-11.66 0,-5.74 -2.02,-10.26 -6.04,-13.56 -4.05,-3.27 -10.47,-4.9 -19.27,-4.9l-14.59 0zm0 52.84l0 48.3 15.61 0c9.18,0 15.92,-0.9 20.2,-2.69 4.29,-1.8 7.73,-4.63 10.33,-8.45 2.59,-3.82 3.91,-7.97 3.91,-12.4 0,-5.59 -1.84,-10.5 -5.49,-14.66 -3.64,-4.15 -8.66,-7.01 -15.05,-8.55 -4.28,-1.02 -11.75,-1.55 -22.39,-1.55l-7.12 0zm90.12 -70.51c2.71,0 5.01,0.96 6.93,2.91 1.93,1.92 2.9,4.29 2.9,7 0,2.69 -0.97,5.02 -2.9,6.94 -1.92,1.96 -4.22,2.92 -6.93,2.92 -2.69,0 -4.96,-0.96 -6.89,-2.92 -1.92,-1.92 -2.88,-4.25 -2.88,-6.94 0,-2.71 0.96,-5.08 2.88,-7 1.93,-1.95 4.2,-2.91 6.89,-2.91zm-5.92 38.14l11.9 0 0 92.92 -11.9 0 0 -92.92zm115.22 62.12l10.09 5.31c-3.32,6.44 -7.14,11.66 -11.49,15.63 -4.34,3.94 -9.21,6.97 -14.64,9.04 -5.45,2.07 -11.57,3.09 -18.43,3.09 -15.22,0 -27.09,-4.96 -35.66,-14.87 -8.58,-9.92 -12.87,-21.12 -12.87,-33.6 0,-11.75 3.65,-22.25 10.91,-31.44 9.19,-11.69 21.52,-17.55 36.95,-17.55 15.9,0 28.61,6 38.09,17.99 6.74,8.46 10.18,19.02 10.29,31.7l-83.99 0c0.23,10.76 3.71,19.57 10.38,26.42 6.71,6.88 14.99,10.33 24.82,10.33 4.76,0 9.4,-0.82 13.88,-2.45 4.5,-1.63 8.32,-3.79 11.47,-6.5 3.14,-2.72 6.56,-7.06 10.2,-13.1zm0.12 -25.02c-1.61,-6.39 -3.94,-11.47 -7,-15.28 -3.09,-3.82 -7.14,-6.88 -12.19,-9.22 -5.04,-2.33 -10.35,-3.5 -15.89,-3.5 -9.19,0 -17.06,2.92 -23.66,8.78 -4.84,4.29 -8.45,10.67 -10.93,19.22l69.67 0zm35.14 -37.1l11.9 0 0 16.65c4.81,-6.35 10.12,-11.11 15.92,-14.23 5.84,-3.12 12.16,-4.69 19.02,-4.69 6.97,0 13.15,1.75 18.55,5.28 5.39,3.53 9.38,8.28 11.95,14.26 2.57,5.95 3.85,15.25 3.85,27.88l0 47.77 -11.9 0 0 -44.28c0,-10.67 -0.46,-17.81 -1.37,-21.4 -1.46,-6.13 -4.14,-10.73 -8.07,-13.85 -3.94,-3.09 -9.07,-4.64 -15.4,-4.64 -7.26,0 -13.77,2.39 -19.48,7.18 -5.75,4.75 -9.54,10.67 -11.35,17.73 -1.13,4.61 -1.72,13.01 -1.72,25.22l0 34.04 -11.9 0 0 -92.92zm185.16 62.12l10.09 5.31c-3.32,6.44 -7.15,11.66 -11.49,15.63 -4.35,3.94 -9.22,6.97 -14.64,9.04 -5.46,2.07 -11.58,3.09 -18.43,3.09 -15.23,0 -27.09,-4.96 -35.67,-14.87 -8.57,-9.92 -12.86,-21.12 -12.86,-33.6 0,-11.75 3.65,-22.25 10.91,-31.44 9.18,-11.69 21.52,-17.55 36.95,-17.55 15.89,0 28.6,6 38.08,17.99 6.74,8.46 10.18,19.02 10.3,31.7l-83.99 0c0.23,10.76 3.7,19.57 10.38,26.42 6.71,6.88 14.99,10.33 24.82,10.33 4.75,0 9.39,-0.82 13.88,-2.45 4.49,-1.63 8.31,-3.79 11.46,-6.5 3.15,-2.72 6.56,-7.06 10.21,-13.1zm0.12 -25.02c-1.61,-6.39 -3.94,-11.47 -7.01,-15.28 -3.09,-3.82 -7.14,-6.88 -12.18,-9.22 -5.05,-2.33 -10.36,-3.5 -15.9,-3.5 -9.19,0 -17.06,2.92 -23.65,8.78 -4.84,4.29 -8.46,10.67 -10.94,19.22l69.68 0zm82.03 -27.01l-7.7 7.93c-6.38,-6.18 -12.66,-9.27 -18.75,-9.27 -3.88,0 -7.2,1.28 -9.97,3.85 -2.77,2.54 -4.17,5.54 -4.17,8.95 0,3.01 1.13,5.89 3.41,8.61 2.28,2.8 7.08,6.06 14.38,9.83 8.86,4.57 14.9,9.04 18.1,13.29 3.13,4.32 4.7,9.19 4.7,14.59 0,7.63 -2.68,14.08 -8.05,19.39 -5.36,5.28 -12.07,7.93 -20.12,7.93 -5.37,0 -10.47,-1.16 -15.37,-3.5 -4.87,-2.33 -8.9,-5.54 -12.1,-9.65l7.52 -8.55c6.1,6.88 12.6,10.33 19.46,10.33 4.78,0 8.86,-1.55 12.24,-4.61 3.36,-3.06 5.05,-6.68 5.05,-10.82 0,-3.41 -1.11,-6.44 -3.33,-9.13 -2.24,-2.62 -7.26,-5.92 -15.07,-9.88 -8.4,-4.32 -14.12,-8.58 -17.12,-12.78 -3.04,-4.2 -4.55,-8.98 -4.55,-14.38 0,-7.03 2.42,-12.86 7.23,-17.52 4.84,-4.64 10.93,-6.97 18.31,-6.97 8.58,0 17.21,4.11 25.9,12.36zm72.09 -42.81l25.08 0c13.97,0 23.45,0.58 28.4,1.72 7.5,1.69 13.57,5.34 18.23,10.96 4.7,5.61 7.03,12.52 7.03,20.71 0,6.82 -1.6,12.83 -4.84,18 -3.21,5.19 -7.82,9.1 -13.82,11.75 -5.98,2.65 -14.26,4 -24.82,4.05l45.23 58.45 -15.43 0 -45.23 -58.45 -7.23 0 0 58.45 -12.6 0 0 -125.64zm12.6 12.25l0 42.69 21.7 0.18c8.42,0 14.64,-0.79 18.66,-2.39 4.02,-1.61 7.18,-4.14 9.45,-7.64 2.25,-3.51 3.38,-7.41 3.38,-11.76 0,-4.2 -1.13,-8.05 -3.44,-11.49 -2.27,-3.44 -5.28,-5.89 -9.01,-7.37 -3.71,-1.49 -9.88,-2.22 -18.52,-2.22l-22.22 0zm183.55 20.47l0 92.92 -11.89 0 0 -15.98c-5.02,6.09 -10.62,10.67 -16.86,13.7 -6.22,3.04 -13.04,4.55 -20.42,4.55 -13.12,0 -24.35,-4.75 -33.65,-14.26 -9.3,-9.54 -13.94,-21.09 -13.94,-34.73 0,-13.33 4.69,-24.76 14.08,-34.24 9.37,-9.48 20.65,-14.23 33.86,-14.23 7.61,0 14.5,1.6 20.68,4.81 6.15,3.21 11.58,8.05 16.25,14.55l0 -17.09 11.89 0zm-47.89 9.28c-6.64,0 -12.8,1.63 -18.4,4.89 -5.63,3.24 -10.09,7.82 -13.41,13.71 -3.33,5.89 -4.99,12.13 -4.99,18.72 0,6.51 1.66,12.75 5.02,18.7 3.35,5.95 7.84,10.59 13.5,13.88 5.66,3.33 11.72,4.99 18.2,4.99 6.5,0 12.71,-1.64 18.54,-4.93 5.87,-3.3 10.36,-7.73 13.51,-13.36 3.15,-5.6 4.72,-11.93 4.72,-18.95 0,-10.71 -3.52,-19.66 -10.61,-26.86 -7.06,-7.21 -15.75,-10.79 -26.08,-10.79zm73.12 -9.28l11.9 0 0 92.92 -11.9 0 0 -92.92zm11.93 -43.57l18.34 0 -25.14 26.25 -11.78 0 18.58 -26.25zm115.14 62.88l-9.48 5.89c-8.23,-10.85 -19.45,-16.27 -33.68,-16.27 -11.38,0 -20.83,3.64 -28.35,10.9 -7.5,7.26 -11.26,16.07 -11.26,26.45 0,6.77 1.72,13.13 5.19,19.08 3.44,5.94 8.2,10.58 14.24,13.88 6,3.29 12.77,4.93 20.26,4.93 13.71,0 24.91,-5.42 33.6,-16.28l9.48 6.24c-4.47,6.68 -10.44,11.85 -17.94,15.55 -7.52,3.68 -16.07,5.51 -25.66,5.51 -14.76,0 -26.98,-4.66 -36.69,-13.97 -9.71,-9.33 -14.55,-20.65 -14.55,-34 0,-8.95 2.27,-17.3 6.82,-25 4.52,-7.7 10.76,-13.7 18.69,-18.02 7.96,-4.32 16.83,-6.47 26.66,-6.47 6.19,0 12.13,0.93 17.88,2.8 5.71,1.86 10.58,4.31 14.58,7.31 4.02,3.01 7.41,6.83 10.21,11.47zm101.37 42.81l10.09 5.31c-3.32,6.44 -7.15,11.66 -11.49,15.63 -4.35,3.94 -9.22,6.97 -14.64,9.04 -5.46,2.07 -11.58,3.09 -18.43,3.09 -15.23,0 -27.09,-4.96 -35.67,-14.87 -8.57,-9.92 -12.86,-21.12 -12.86,-33.6 0,-11.75 3.65,-22.25 10.91,-31.44 9.18,-11.69 21.52,-17.55 36.95,-17.55 15.89,0 28.6,6 38.08,17.99 6.74,8.46 10.18,19.02 10.3,31.7l-83.99 0c0.23,10.76 3.7,19.57 10.38,26.42 6.71,6.88 14.99,10.33 24.82,10.33 4.75,0 9.39,-0.82 13.88,-2.45 4.49,-1.63 8.31,-3.79 11.46,-6.5 3.15,-2.72 6.56,-7.06 10.21,-13.1zm0.12 -25.02c-1.61,-6.39 -3.94,-11.47 -7.01,-15.28 -3.09,-3.82 -7.14,-6.88 -12.18,-9.22 -5.05,-2.33 -10.36,-3.5 -15.9,-3.5 -9.19,0 -17.06,2.92 -23.65,8.78 -4.84,4.29 -8.46,10.67 -10.94,19.22l69.68 0zm82.03 -27.01l-7.7 7.93c-6.38,-6.18 -12.66,-9.27 -18.75,-9.27 -3.88,0 -7.2,1.28 -9.97,3.85 -2.77,2.54 -4.17,5.54 -4.17,8.95 0,3.01 1.13,5.89 3.41,8.61 2.28,2.8 7.08,6.06 14.38,9.83 8.86,4.57 14.9,9.04 18.1,13.29 3.13,4.32 4.7,9.19 4.7,14.59 0,7.63 -2.68,14.08 -8.04,19.39 -5.37,5.28 -12.08,7.93 -20.13,7.93 -5.36,0 -10.47,-1.16 -15.37,-3.5 -4.87,-2.33 -8.9,-5.54 -12.1,-9.65l7.52 -8.55c6.1,6.88 12.6,10.33 19.46,10.33 4.78,0 8.86,-1.55 12.24,-4.61 3.36,-3.06 5.05,-6.68 5.05,-10.82 0,-3.41 -1.11,-6.44 -3.33,-9.13 -2.24,-2.62 -7.26,-5.92 -15.07,-9.88 -8.4,-4.32 -14.12,-8.58 -17.12,-12.78 -3.04,-4.2 -4.55,-8.98 -4.55,-14.38 0,-7.03 2.42,-12.86 7.23,-17.52 4.84,-4.64 10.93,-6.97 18.31,-6.97 8.58,0 17.21,4.11 25.9,12.36z"/>
  </g>
 </g>
</svg>
