<?xml version="1.0" encoding="UTF-8"?>
<!DOCTYPE svg PUBLIC "-//W3C//DTD SVG 1.1//EN" "http://www.w3.org/Graphics/SVG/1.1/DTD/svg11.dtd">
<!-- Creator: CorelDRAW 2020 (64-Bit) -->
<svg xmlns="http://www.w3.org/2000/svg" xml:space="preserve" width="40px" height="49px" version="1.1" style="shape-rendering:geometricPrecision; text-rendering:geometricPrecision; image-rendering:optimizeQuality; fill-rule:evenodd; clip-rule:evenodd"
viewBox="0 0 2.934 3.617"
 xmlns:xlink="http://www.w3.org/1999/xlink"
 xmlns:xodm="http://www.corel.com/coreldraw/odm/2003">
 <defs>
  <style type="text/css">
   <![CDATA[
    .fil0 {fill:#D63031}
    .fil1 {fill:white}
   ]]>
  </style>
 </defs>
 <g id="Capa_x0020_1">
  <metadata id="CorelCorpID_0Corel-Layer"/>
  <path class="fil0" d="M0 1.461c0,0.381 0.166,0.777 0.43,1.04 0.071,0.071 0.265,0.214 0.371,0.308 0.219,0.195 0.401,0.438 0.551,0.692 0.04,0.068 0.045,0.116 0.126,0.116 0.068,0 0.115,-0.133 0.177,-0.226 0.219,-0.327 0.349,-0.459 0.62,-0.696 0.047,-0.041 0.129,-0.096 0.17,-0.137 0.219,-0.218 0.385,-0.432 0.453,-0.766 0.097,-0.476 -0.004,-0.883 -0.29,-1.251 -0.427,-0.551 -1.266,-0.712 -1.888,-0.338 -0.438,0.264 -0.72,0.739 -0.72,1.258z"/>
  <path class="fil1" d="M1.169 1.425l0.141 0 0 0.138 0 0.07 0 0.226 0 0.129 0.591 0 0 -0.218c0,-0.076 -0.062,-0.137 -0.137,-0.137l-0.078 0 0 -0.07 0.427 0 0 0.526 -1.356 0 0 -0.662 -0.11 0 1.297 -0.782 0.17 0.117 0 0.091 -0.945 0.572 0 0z"/>
 </g>
</svg>
