<svg version="1.1" id="Layer_1" xmlns="http://www.w3.org/2000/svg" x="0" y="0" width="16" height="16" viewBox="796 796 200 200" fill="currentColor" xml:space="preserve"><path d="M989.164 888.038H823.383V825.18a13.74 13.74 0 0 1 8.503-12.73 13.739 13.739 0 0 1 15.016 2.98l.194.186c.111.103.239.176.357.27-5.192 8.487-5.318 19.201-.345 27.783a5.576 5.576 0 0 0 8.773 1.147l29.526-29.527a5.58 5.58 0 0 0-1.147-8.772c-8.803-5.101-19.844-4.831-28.429.763-.117-.14-.214-.29-.344-.421l-.131-.129a25.832 25.832 0 0 0-28.117-5.486 25.836 25.836 0 0 0-15.989 23.937v62.857h-8.413a6.066 6.066 0 0 0 0 12.131h8.413v25.684c0 20.229 13.451 37.372 31.878 42.969l-13.569 13.572a6.065 6.065 0 1 0 8.579 8.577l20.214-20.217h76.402l20.215 20.217c1.184 1.185 2.737 1.776 4.289 1.776s3.104-.592 4.289-1.776a6.064 6.064 0 0 0 0-8.577l-13.838-13.84c17.993-5.855 31.04-22.779 31.04-42.701v-25.684h8.414a6.065 6.065 0 1 0 .001-12.131zm-20.546 37.814c0 18.069-14.7 32.77-32.77 32.77h-79.697c-18.069 0-32.769-14.7-32.769-32.77v-22.924a2.76 2.76 0 0 1 2.759-2.759h139.718a2.76 2.76 0 0 1 2.759 2.759v22.924z"/><path d="M875.431 839.156a4.032 4.032 0 0 0 2.857-1.187c.755-.741 1.187-1.792 1.187-2.857s-.431-2.103-1.187-2.858c-1.509-1.509-4.206-1.509-5.715 0-.754.755-1.187 1.793-1.187 2.858s.432 2.117 1.187 2.857a4.06 4.06 0 0 0 2.858 1.187zM889.301 854.712a4.085 4.085 0 0 0 5.729 0 4.06 4.06 0 0 0 0-5.729c-1.577-1.577-4.138-1.577-5.729 0a4.062 4.062 0 0 0 0 5.729zM886.659 846.341a4.043 4.043 0 0 0 0-5.716 4.02 4.02 0 0 0-5.715 0 4.044 4.044 0 0 0 0 5.716 4.069 4.069 0 0 0 2.858 1.187 4.048 4.048 0 0 0 2.857-1.187zM896.486 860.212c0 1.064.432 2.103 1.187 2.858.754.754 1.791 1.186 2.856 1.186s2.116-.432 2.857-1.186a4.06 4.06 0 0 0 1.187-2.858 4.06 4.06 0 0 0-1.187-2.858c-1.494-1.51-4.205-1.51-5.714 0a4.066 4.066 0 0 0-1.186 2.858zM865.119 841.003a4.107 4.107 0 0 0-1.173 2.858c0 1.064.432 2.103 1.173 2.857a4.118 4.118 0 0 0 2.871 1.187 4.088 4.088 0 0 0 2.858-1.187 4.064 4.064 0 0 0 1.186-2.857 4.064 4.064 0 0 0-1.186-2.858c-1.497-1.51-4.219-1.51-5.729 0zM870.982 858.406c.377 0 .741-.054 1.119-.162 2.143-.607 3.383-2.844 2.776-5.001a4.04 4.04 0 0 0-5.001-2.764 4.029 4.029 0 0 0-2.776 4.988 4.052 4.052 0 0 0 3.882 2.939zM873.988 868.907a4.06 4.06 0 0 0 3.896-5.163c-.621-2.144-2.858-3.397-5.002-2.777a4.036 4.036 0 0 0-2.776 5 4.053 4.053 0 0 0 3.882 2.94zM876.995 879.394a4.062 4.062 0 0 0 2.858-1.187c.754-.741 1.186-1.792 1.186-2.857s-.432-2.103-1.186-2.858c-1.51-1.51-4.206-1.496-5.716 0-.755.755-1.186 1.793-1.186 2.858s.431 2.116 1.186 2.857a4.063 4.063 0 0 0 2.858 1.187zM881.659 825.218c-.755.741-1.187 1.793-1.187 2.858a4.056 4.056 0 0 0 4.044 4.044 4.06 4.06 0 0 0 2.857-1.187c.755-.755 1.187-1.792 1.187-2.857s-.432-2.117-1.187-2.858c-1.509-1.51-4.205-1.51-5.714 0zM903.927 838.873a4.07 4.07 0 0 0 5.122-2.548 4.046 4.046 0 1 0-5.122 2.548zM893.574 835.382a4.04 4.04 0 1 0 2.575-7.657 4.04 4.04 0 0 0-5.123 2.534c-.713 2.117.432 4.422 2.548 5.123zM915.56 842.567a4.064 4.064 0 0 0 2.858-1.187 4.07 4.07 0 0 0 1.186-2.871 4.088 4.088 0 0 0-1.186-2.858c-1.51-1.496-4.206-1.496-5.716 0a4.091 4.091 0 0 0-1.187 2.858c0 1.065.432 2.116 1.187 2.871a4.066 4.066 0 0 0 2.858 1.187z"/></svg>