<svg version="1.1" id="Capa_1" xmlns="http://www.w3.org/2000/svg" x="0" y="0" width="16" height="16" viewBox="0 0 330.004 330.004" fill="currentColor" xml:space="preserve"><path d="M315.002 0h-300c-8.284 0-15 6.716-15 15v300.004c0 8.284 6.716 15 15 15h170c8.284 0 15-6.716 15-15 0-8.284-6.716-15-15-15h-155v-130h70V225c0 8.284 6.716 15 15 15s15-6.716 15-15V85c0-8.284-6.716-15-15-15s-15 6.716-15 15v55.004h-70V30h150v75.004c0 8.284 6.716 15 15 15h70c8.284 0 15-6.716 15-15 0-8.284-6.716-15-15-15h-55V30h90v180.004h-105c-8.284 0-15 6.716-15 15 0 8.284 6.716 15 15 15h105v60h-25c-8.284 0-15 6.716-15 15 0 8.284 6.716 15 15 15h40c8.284 0 15-6.716 15-15V15c0-8.284-6.716-15-15-15z"/></svg>