<svg version="1.2" baseProfile="tiny" id="Layer_1" xmlns="http://www.w3.org/2000/svg" x="0" y="0" width="16" height="16" viewBox="-351 153 256 256" fill="currentColor" xml:space="preserve"><path d="m-223.4 158.8-120.5 60.7v183.1h9.6V225.3l110.9-55.6 111 55.8v177.1h9.4V219.5l-120.4-60.7zm73.7 144.7-14.8-38.2c-2.7-7.2-8.8-13.5-20.3-13.5h-77.7c-11.3 0-17.3 6.2-20.3 13.5l-14.8 38.2c-5.8.8-16.2 7.6-16.2 20.6v48.6h14.4v15.6c0 19.1 27.1 19 27.1 0v-15.6h97.6v15.6c0 19 27.1 19.1 27.1 0v-15.6h14.4v-48.6c-.3-13-10.6-20-16.5-20.6zm-135.8 39.9c-6.8 0-12.5-5.8-12.5-12.9 0-7 5.6-12.9 12.5-12.9 6.8 0 12.5 5.8 12.5 12.9 0 7.1-5.5 12.9-12.5 12.9zm61.8-40.3h-58.5l11.1-30.1c1.3-4.3 3.5-7.2 8.4-7.4h78c4.9 0 7 3.1 8.4 7.4l11.1 30.1h-58.5zm62 40.3c-6.8 0-12.5-5.8-12.5-12.9 0-7 5.6-12.9 12.5-12.9s12.5 5.8 12.5 12.9c0 7.1-5.7 12.9-12.5 12.9z"/></svg>