<svg xmlns="http://www.w3.org/2000/svg" xml:space="preserve" width="200" height="78" style="shape-rendering:geometricPrecision;text-rendering:geometricPrecision;image-rendering:optimizeQuality;fill-rule:evenodd;clip-rule:evenodd" viewBox="0 0 200 77.76"><path d="M23.57 35.22h6.38v25.42h26.67V50.8c0-3.41-2.79-6.2-6.19-6.2h-3.52v-3.13h19.3v23.76H4.95V35.31H0L58.59 0l7.68 5.29V9.4l-42.7 25.82zm89.95 32.67h1.91c.77 0 1.36.09 1.78.27.41.18.74.46.97.84.25.38.36.8.36 1.26 0 .43-.1.82-.31 1.18-.21.35-.52.63-.92.86.5.17.89.37 1.16.6.27.23.48.51.63.84.15.32.23.68.23 1.06 0 .78-.29 1.44-.86 1.98-.56.54-1.33.81-2.29.81h-2.66v-9.7zm.95.94v3.11h.55c.68 0 1.17-.06 1.49-.19a1.594 1.594 0 0 0 1.04-1.49c0-.45-.16-.79-.47-1.05-.31-.25-.81-.38-1.49-.38h-1.12zm0 4.08v3.73h1.2c.71 0 1.23-.07 1.56-.21.33-.14.6-.36.8-.65.2-.3.3-.61.3-.96 0-.43-.14-.81-.42-1.13-.29-.32-.67-.54-1.17-.66-.33-.08-.9-.12-1.73-.12h-.54zm6.95-5.44c.21 0 .39.07.54.22.15.15.22.33.22.54 0 .21-.07.39-.22.54-.15.15-.33.22-.54.22a.71.71 0 0 1-.53-.22.732.732 0 0 1-.22-.54c0-.21.07-.39.22-.54a.71.71 0 0 1 .53-.22zm-.46 2.94h.92v7.18h-.92v-7.18zm8.9 4.8.78.41c-.26.5-.55.9-.89 1.2a3.4 3.4 0 0 1-1.13.7c-.42.16-.89.24-1.42.24-1.18 0-2.09-.38-2.75-1.15-.67-.76-1-1.63-1-2.59 0-.91.28-1.72.84-2.43.71-.9 1.67-1.35 2.86-1.35 1.22 0 2.2.46 2.94 1.39.52.65.78 1.46.79 2.44h-6.48c.02.83.28 1.51.8 2.04s1.16.8 1.91.8c.37 0 .73-.06 1.08-.19.34-.13.64-.29.88-.5.24-.21.51-.55.79-1.01zm.01-1.93c-.13-.5-.31-.89-.54-1.18-.24-.3-.55-.53-.94-.71-.39-.18-.8-.27-1.23-.27-.71 0-1.32.22-1.83.67-.37.33-.65.83-.84 1.49h5.38zm2.71-2.87h.92v1.29c.37-.49.78-.86 1.23-1.1.45-.24.94-.36 1.47-.36s1.01.13 1.43.41c.41.27.72.63.92 1.1.2.46.3 1.17.3 2.15v3.69h-.92v-3.42c0-.83-.04-1.38-.11-1.65-.11-.48-.32-.83-.62-1.07-.3-.24-.7-.36-1.19-.36-.56 0-1.06.18-1.5.55-.45.37-.74.83-.88 1.37-.09.36-.13 1.01-.13 1.95v2.63h-.92v-7.18zm14.29 4.8.78.41c-.25.5-.55.9-.89 1.2a3.4 3.4 0 0 1-1.13.7c-.42.16-.89.24-1.42.24-1.17 0-2.09-.38-2.75-1.15-.66-.76-.99-1.63-.99-2.59 0-.91.28-1.72.84-2.43.71-.9 1.66-1.35 2.85-1.35 1.23 0 2.21.46 2.94 1.39.52.65.79 1.46.79 2.44h-6.48c.02.83.29 1.51.8 2.04.52.53 1.16.8 1.92.8.37 0 .72-.06 1.07-.19.35-.13.64-.29.89-.5.24-.21.5-.55.78-1.01zm.01-1.93c-.12-.5-.3-.89-.54-1.18-.24-.3-.55-.53-.94-.71-.39-.18-.8-.27-1.23-.27-.71 0-1.31.22-1.82.67-.38.33-.65.83-.85 1.49h5.38zm6.33-2.09-.59.61c-.49-.47-.98-.71-1.45-.71-.3 0-.55.1-.77.3-.21.19-.32.42-.32.69 0 .23.09.45.26.66.18.22.55.47 1.11.76.69.35 1.15.7 1.4 1.03.24.33.36.71.36 1.12 0 .59-.2 1.09-.62 1.5-.41.41-.93.61-1.55.61a2.701 2.701 0 0 1-2.12-1.01l.58-.66c.47.53.97.79 1.5.79.37 0 .69-.12.95-.35.26-.24.39-.52.39-.84 0-.26-.09-.5-.26-.7-.17-.21-.56-.46-1.16-.77-.65-.33-1.09-.66-1.33-.98a1.9 1.9 0 0 1-.35-1.11c0-.54.19-.99.56-1.35.38-.36.85-.54 1.42-.54.66 0 1.32.32 1.99.95zm5.57-3.3h1.93c1.08 0 1.81.04 2.2.13.58.13 1.04.41 1.4.85.37.43.55.96.55 1.59 0 .53-.13 1-.38 1.39-.24.4-.6.71-1.06.91-.47.21-1.1.31-1.92.31l3.49 4.52h-1.19l-3.49-4.52h-.56v4.52h-.97v-9.7zm.97.94v3.3l1.68.01c.65 0 1.13-.06 1.44-.18.31-.13.55-.32.73-.59.17-.27.26-.57.26-.91a1.579 1.579 0 0 0-.96-1.46c-.29-.11-.77-.17-1.43-.17h-1.72zm14.17 1.58v7.18H173v-1.24c-.39.47-.82.83-1.3 1.06-.48.23-1.01.35-1.58.35-1.01 0-1.88-.37-2.59-1.1-.72-.74-1.08-1.63-1.08-2.68 0-1.03.36-1.91 1.09-2.64.72-.74 1.59-1.1 2.61-1.1.59 0 1.12.12 1.6.37.47.25.89.62 1.25 1.12v-1.32h.92zm-3.7.72c-.51 0-.98.13-1.42.38-.43.25-.78.6-1.03 1.06-.26.45-.39.93-.39 1.44 0 .5.13.98.39 1.44.26.46.61.82 1.04 1.07.44.26.91.39 1.41.39.5 0 .98-.13 1.43-.38.45-.25.8-.6 1.04-1.03.24-.43.37-.92.37-1.46 0-.83-.28-1.52-.82-2.08-.55-.55-1.22-.83-2.02-.83zm5.65-.72h.92v7.18h-.92v-7.18zm.92-3.36h1.41l-1.94 2.03h-.91l1.44-2.03zm8.89 4.85-.74.46c-.63-.84-1.5-1.26-2.6-1.26-.87 0-1.6.28-2.18.84-.58.56-.87 1.24-.87 2.05 0 .52.13 1.01.4 1.47.26.46.63.82 1.1 1.07.46.25.98.38 1.56.38 1.06 0 1.92-.42 2.59-1.26l.74.49c-.35.51-.81.91-1.39 1.2-.58.28-1.24.42-1.98.42-1.14 0-2.08-.36-2.83-1.08-.75-.72-1.13-1.59-1.13-2.62 0-.69.18-1.34.53-1.93.35-.6.83-1.06 1.44-1.39.62-.34 1.3-.5 2.06-.5.48 0 .94.07 1.38.21.44.15.82.34 1.13.57.31.23.57.53.79.88zm7.82 3.31.78.41c-.26.5-.55.9-.89 1.2a3.4 3.4 0 0 1-1.13.7c-.42.16-.89.24-1.42.24-1.18 0-2.09-.38-2.75-1.15-.67-.76-1-1.63-1-2.59 0-.91.29-1.72.85-2.43.7-.9 1.66-1.35 2.85-1.35 1.22 0 2.21.46 2.94 1.39.52.65.78 1.46.79 2.44h-6.48c.02.83.29 1.51.8 2.04.52.53 1.16.8 1.92.8.36 0 .72-.06 1.07-.19.34-.13.64-.29.88-.5.25-.21.51-.55.79-1.01zm.01-1.93c-.12-.5-.3-.89-.54-1.18-.24-.3-.55-.53-.94-.71-.39-.18-.8-.27-1.23-.27-.71 0-1.32.22-1.82.67-.38.33-.66.83-.85 1.49h5.38zm6.33-2.09-.59.61c-.5-.47-.98-.71-1.45-.71-.3 0-.56.1-.77.3-.21.19-.32.42-.32.69 0 .23.09.45.26.66.18.22.55.47 1.11.76.69.35 1.15.7 1.4 1.03.24.33.36.71.36 1.12 0 .59-.21 1.09-.62 1.5-.41.41-.93.61-1.55.61-.42 0-.81-.09-1.19-.27-.38-.18-.69-.43-.93-.74l.58-.66c.47.53.97.79 1.5.79.37 0 .68-.12.94-.35.26-.24.39-.52.39-.84 0-.26-.08-.5-.25-.7-.18-.21-.56-.46-1.17-.77-.64-.33-1.09-.66-1.32-.98a1.9 1.9 0 0 1-.35-1.11c0-.54.19-.99.56-1.35.37-.36.84-.54 1.41-.54.66 0 1.33.32 2 .95zM91.76 64.66h-2.75l.08-3.49c-.95 1.35-2.12 2.37-3.53 3.04-1.4.68-2.95 1.02-4.66 1.02-1.37 0-2.59-.19-3.64-.57-1.06-.38-1.87-.74-2.43-1.1-.57-.35-1.27-.88-2.09-1.6-.83-.71-1.57-1.8-2.23-3.26-.66-1.46-.99-3.06-.99-4.82 0-1.65.33-3.22 1.01-4.72.68-1.5 1.55-2.75 2.63-3.75 1.08-1 2.29-1.75 3.61-2.27 1.32-.51 2.73-.77 4.21-.77 1.08 0 2.1.15 3.06.45.96.3 1.87.74 2.74 1.33.86.6 1.63 1.34 2.31 2.23V42.9h2.67v21.76zm-2.67-10.98c0-1.48-.39-2.91-1.18-4.28-.78-1.37-1.79-2.44-3.04-3.21a7.606 7.606 0 0 0-4.05-1.14h-.77c-1.11.1-2.13.43-3.08.97-.89.45-1.69 1.11-2.41 1.98-.71.86-1.24 1.79-1.58 2.79-.34 1-.51 2.04-.51 3.15v.73c0 .67.11 1.32.31 1.96.2.63.6 1.42 1.19 2.34.6.93 1.52 1.76 2.76 2.49 1.24.73 2.59 1.09 4.05 1.09 1.51 0 2.91-.42 4.2-1.25a8.791 8.791 0 0 0 3.01-3.33c.73-1.38 1.1-2.81 1.1-4.29zm11.05-17.83v28.81h-2.76V35.85h2.76zm8.46 0v28.81h-2.76V35.85h2.76zm26.73 28.81h-2.76l.08-3.49c-.94 1.35-2.12 2.37-3.52 3.04-1.41.68-2.96 1.02-4.66 1.02-1.38 0-2.6-.19-3.65-.57-1.05-.38-1.86-.74-2.43-1.1-.57-.35-1.26-.88-2.09-1.6-.82-.71-1.56-1.8-2.23-3.26-.66-1.46-.99-3.06-.99-4.82 0-1.65.34-3.22 1.01-4.72.68-1.5 1.56-2.75 2.64-3.75s2.28-1.75 3.6-2.27c1.33-.51 2.73-.77 4.22-.77 1.08 0 2.1.15 3.06.45a9.95 9.95 0 0 1 5.04 3.56V42.9h2.68v21.76zm-2.68-10.98c0-1.48-.39-2.91-1.17-4.28-.79-1.37-1.8-2.44-3.04-3.21a7.632 7.632 0 0 0-4.05-1.14h-.77c-1.11.1-2.14.43-3.08.97-.9.45-1.7 1.11-2.41 1.98-.72.86-1.25 1.79-1.58 2.79-.34 1-.51 2.04-.51 3.15v.73c0 .67.1 1.32.3 1.96.21.63.6 1.42 1.2 2.34.59.93 1.51 1.76 2.75 2.49 1.25.73 2.6 1.09 4.06 1.09 1.51 0 2.91-.42 4.19-1.25a8.816 8.816 0 0 0 3.02-3.33c.73-1.38 1.09-2.81 1.09-4.29zm10.97-2.18v13.16h-2.75V42.9h2.59v2.51c.7-.96 1.47-1.68 2.31-2.16a5.43 5.43 0 0 1 2.75-.72v3c-1.32 0-2.54.5-3.64 1.5-.52.6-.85 1.25-1.02 1.95-.16.71-.24 1.55-.24 2.52zm26.89-5.12V35.85h2.68v28.81h-2.68v-3.24c-1.08 1.28-2.33 2.23-3.74 2.86-1.42.63-2.89.95-4.4.95-1.92 0-3.74-.48-5.47-1.42-1.73-.94-3.15-2.28-4.28-4.01-1.12-1.72-1.68-3.65-1.68-5.78 0-1.19.13-2.27.39-3.27.25-1 .8-2.18 1.64-3.52.84-1.35 2.09-2.5 3.77-3.44 1.67-.95 3.52-1.42 5.55-1.42 1.05 0 2.07.16 3.06.47.98.31 1.9.75 2.75 1.31.85.57 1.66 1.32 2.41 2.23zm0 7.56c0-1.4-.31-2.74-.93-4.02a8.926 8.926 0 0 0-2.65-3.24 8.333 8.333 0 0 0-3.87-1.63h-.97c-1.54 0-2.94.41-4.18 1.23-1.24.82-2.22 1.91-2.94 3.26a9.26 9.26 0 0 0-1.07 4.34c0 1.07.21 2.14.63 3.19.42 1.04 1.03 2 1.84 2.86.73.83 1.62 1.48 2.68 1.93 1.05.46 2.13.69 3.24.69 1.48 0 2.86-.41 4.11-1.23 1.26-.82 2.26-1.9 3-3.23.74-1.34 1.11-2.72 1.11-4.15zm7-.16c0-1.6.29-3.05.85-4.39.57-1.34 1.41-2.57 2.51-3.72 1.11-1.15 2.36-2.01 3.75-2.59 1.39-.58 2.81-.87 4.24-.87h.85c2 .22 3.58.73 4.74 1.54 1.16.82 2.05 1.57 2.67 2.28.62.7 1.26 1.66 1.91 2.9.65 1.23.97 2.78.97 4.65 0 1.72-.33 3.35-.99 4.84-.66 1.51-1.63 2.81-2.9 3.92-.92.89-2 1.6-3.24 2.12-1.24.51-2.61.77-4.09.77h-.53c-1.46 0-2.67-.25-3.63-.73-.96-.49-1.74-.96-2.35-1.4-.61-.44-1.13-.93-1.56-1.47-.97-1.06-1.75-2.3-2.33-3.73-.58-1.43-.87-2.8-.87-4.12zm2.96-.08c0 .89.11 1.75.32 2.58.22.82.62 1.73 1.2 2.74.58 1 1.53 1.84 2.84 2.52 1.31.67 2.64 1.01 3.99 1.01 1.4 0 2.74-.33 4.01-.99 1.27-.67 2.29-1.67 3.08-3.01.78-1.34 1.17-2.95 1.17-4.85 0-1.39-.23-2.64-.71-3.78-.47-1.14-1.08-2.06-1.82-2.78-.74-.72-1.64-1.3-2.69-1.73-.65-.22-1.21-.36-1.69-.42-.47-.07-.93-.11-1.39-.11-1.06 0-2.06.19-3.02.55-.96.37-1.86.93-2.7 1.69-.83.76-1.48 1.69-1.92 2.82-.45 1.12-.67 2.37-.67 3.76zm18.8-19.47H92.92L68.54 11.18V6.91l33.78 23.48h92.96l3.99 3.84z" style="fill:#fff" id="Capa_x0020_1"/></svg>