<svg version="1.1" id="Capa_1" xmlns="http://www.w3.org/2000/svg" x="0" y="0" width="16" height="16" viewBox="0 0 491.541 491.541" fill="currentColor" xml:space="preserve"><path d="M350.373 116.048H24.445C10.942 116.048 0 126.988 0 140.492V466.42c0 13.503 10.942 24.445 24.445 24.445h325.928c13.503 0 24.444-10.942 24.444-24.445V140.492c0-13.504-10.941-24.444-24.444-24.444zm-24.445 325.927H48.889V164.936h277.039v277.039zM486.695 411.913h-26.513V126.63h26.513a4.835 4.835 0 0 0 4.472-2.991 4.828 4.828 0 0 0-1.05-5.283l-42.802-42.802a4.849 4.849 0 0 0-6.858 0l-42.803 42.802a4.828 4.828 0 0 0-1.05 5.283 4.838 4.838 0 0 0 4.473 2.991h26.513v285.283h-26.513a4.836 4.836 0 0 0-4.473 2.991 4.833 4.833 0 0 0 1.05 5.285l42.803 42.802a4.849 4.849 0 0 0 6.858 0l42.802-42.802a4.827 4.827 0 0 0 1.05-5.285 4.833 4.833 0 0 0-4.472-2.991zM70.676 94.563a4.83 4.83 0 0 0 5.284 1.05 4.833 4.833 0 0 0 2.992-4.472V64.628h285.283v26.513a4.833 4.833 0 0 0 2.991 4.472 4.83 4.83 0 0 0 5.284-1.05l42.802-42.802a4.851 4.851 0 0 0 0-6.86L372.51 2.1a4.828 4.828 0 0 0-5.284-1.051 4.834 4.834 0 0 0-2.991 4.472v26.515H78.952V5.521a4.834 4.834 0 0 0-2.992-4.472A4.828 4.828 0 0 0 70.676 2.1L27.875 44.901a4.851 4.851 0 0 0 0 6.86l42.801 42.802z"/></svg>